<?xml version="1.0" encoding="utf-8"?>
<!-- Generator: Adobe Illustrator 20.1.0, SVG Export Plug-In . SVG Version: 6.00 Build 0)  -->
<svg version="1.1" id="Layer_1" xmlns="http://www.w3.org/2000/svg" xmlns:xlink="http://www.w3.org/1999/xlink" x="0px" y="0px"
	 viewBox="0 0 551.5 552" style="enable-background:new 0 0 551.5 552;" xml:space="preserve">
<style type="text/css">
	.st0{fill:#5C5C5C;}
	.st1{fill:#5B5B5B;}
</style>
<g>
	<path class="st0" d="M80.1,204c4.1,6.3,8.7,13,13.8,20.2c5,7.2,10.1,14.4,15.1,21.7c5,7.2,9.9,14.2,14.7,21
		c4.8,6.8,9,12.9,12.9,18.2c1.3-1.9,3.2-4.6,5.7-8.2c2.5-3.6,5.3-7.7,8.5-12.3c3.2-4.6,6.6-9.6,10.3-15c3.7-5.3,7.4-10.7,11.2-16
		c3.8-5.4,7.4-10.6,11-15.7c3.6-5.1,6.9-9.7,9.9-13.9v124.2h-7.2v-96.9c0-1.1,0-2.3,0.1-3.4c0.1-1.2,0.1-2.3,0.1-3.3
		c-3.9,5.4-8.1,11.3-12.5,17.7c-4.4,6.4-8.8,12.9-13.3,19.5c-4.4,6.6-8.7,12.9-12.8,19.1c-4.1,6.2-7.8,11.6-11,16.5
		c-2-2.7-4.5-6.1-7.5-10.2c-3-4.1-6.1-8.6-9.4-13.4c-3.3-4.8-6.7-9.8-10.2-14.9c-3.5-5.1-6.7-9.9-9.7-14.4c-3-4.5-5.7-8.5-8-12
		c-2.3-3.5-4-6.1-5.1-7.8c0,1,0.1,2.1,0.2,3.3c0.1,1.2,0.2,2.3,0.2,3.4v96.9h-6.9V204z"/>
	<path class="st0" d="M365.3,209.6c-2.8,6.9-5.9,14.6-9.2,23c-3.4,8.4-6.8,16.9-10.2,25.6c-3.5,8.7-6.8,17.2-10.1,25.6
		c-3.2,8.4-6.2,16-8.9,22.9c-2.7,6.9-5,12.7-6.8,17.5c-1.8,4.8-3,7.9-3.4,9.3l-25.5-67.4l-1.3-3.5c-0.1,0.2-0.3,0.9-0.5,2
		c-0.1,0.4-0.3,1-0.5,1.5c-3.1,8.6-6.2,17.1-9.1,25.4c-1.2,3.6-2.5,7.3-3.9,11c-1.3,3.8-2.7,7.5-4,11.2c-1.3,3.7-2.6,7.2-3.9,10.6
		c-1.2,3.4-2.4,6.4-3.4,9.2c-8.5-20.8-16.6-41.5-24.4-62c-7.7-20.5-15.8-41.2-24.4-62h7.7c2.4,5.9,5,12.5,7.8,19.7
		c2.9,7.2,5.7,14.4,8.7,21.8c2.9,7.4,5.7,14.6,8.5,21.7c2.7,7.1,5.2,13.4,7.3,19.2c2.1,5.7,3.9,10.4,5.3,14.2c1.4,3.8,2.2,6,2.4,6.8
		c0,0.1,0.1,0.4,0.2,0.9c0.1,0.5,0.3,1,0.4,1.5c0.2,0.5,0.3,1,0.5,1.4c0.2,0.4,0.3,0.7,0.3,0.8l1.5-4.5c0-0.1,0.3-1.1,0.9-2.9
		c0.6-1.8,1.4-4.1,2.4-6.8c1-2.7,2-5.9,3.3-9.4c1.2-3.5,2.5-7.1,3.7-10.7c2.9-8.5,6.2-18.1,9.9-28.9c-2.9-8.1-5.5-15.3-7.9-21.7
		c-1-2.7-2-5.4-3-8.1c-1-2.7-1.9-5.1-2.7-7.2c-0.8-2.1-1.4-3.9-1.9-5.4c-0.5-1.5-0.8-2.3-0.8-2.5h6.9c5.4,14.1,10.5,27.7,15.3,40.7
		c2,5.6,4.1,11.3,6.3,17.1c2.2,5.8,4.3,11.5,6.3,17.1s3.9,10.8,5.6,15.6c1.7,4.9,3.2,9.2,4.5,12.9l1.5,4.7l1.3-4.7
		c0.2-0.8,1-3.1,2.4-6.9c1.4-3.8,3.2-8.6,5.3-14.3c2.1-5.7,4.6-12.1,7.3-19.2c2.7-7.1,5.6-14.3,8.5-21.7c2.9-7.3,5.8-14.6,8.7-21.8
		c2.9-7.2,5.5-13.7,8-19.5H365.3z"/>
	<path class="st0" d="M387.7,209.4h25.9c12,0,22.1,1.8,30.4,5.5c8.3,3.6,15,8.3,20.2,14.1c5.2,5.8,9,12.2,11.3,19.3
		c2.4,7.1,3.5,14.1,3.5,20.9c0,9.1-1.6,17.2-4.8,24.4c-3.2,7.2-7.5,13.4-12.9,18.6c-5.4,5.2-11.8,9.1-19.1,11.8
		c-7.3,2.7-15,4.1-23,4.1h-31.6V209.4z M419.3,321.4c7.3,0,14.1-1.2,20.6-3.6c6.4-2.4,12-5.9,16.8-10.4c4.8-4.5,8.5-10.1,11.3-16.5
		c2.8-6.5,4.2-13.8,4.2-22c0-6.6-1.2-13.1-3.4-19.4c-2.3-6.3-5.8-12-10.4-16.9c-4.6-4.9-10.5-8.9-17.6-11.8
		c-7.1-3-15.3-4.5-24.7-4.5h-21.5v105.2H419.3z"/>
</g>
<g>
	<g>
		<g>
			<g>
				<g>
					<path class="st1" d="M551,274.4c0,2.6,0.4,1.6,0.5,2C551.3,272.1,550.9,274.5,551,274.4z"/>
					<polygon class="st1" points="546.6,232.5 546.9,233.2 545.4,227.1 					"/>
					<path class="st1" d="M537.6,194.1c0.2,1.9,1.2,5.3,2.4,9.1c0.3,1,0.6,1.9,0.9,2.9l0.5,1.5c0.1,0.5,0.3,1,0.4,1.5
						c0.5,2,0.9,3.9,1.3,5.6l0.1,1.2l1.3,3c-0.5-2.1-1.1-4.3-1.6-6.6c-0.6-2.3-1.1-4.6-1.8-6.8C539.5,201.1,538.4,197,537.6,194.1z"
						/>
					<path class="st1" d="M531.9,173.8c0.2,1.3-1.9-4.2,1.7,4.6c-0.1-0.5-0.2-0.6-0.3-0.9C533.1,176.7,532.6,175.7,531.9,173.8z"/>
					<path class="st1" d="M533.4,177.5C534.9,181.4,532.6,174.9,533.4,177.5L533.4,177.5z"/>
					<path class="st1" d="M525.7,159.9l2.5,4.9c-0.3-1.1-2.3-5.6-1.4-4C524.3,155.7,524.7,156.8,525.7,159.9z"/>
					<path class="st1" d="M523,155.4c0,0,0.3,0.6,0.7,1.2c0.3,0.6,0.6,1.3,0.6,1.3C524.2,157.4,524,156.7,523,155.4z"/>
					<path class="st1" d="M527.1,163.3l-2.7-5.4c0.2,0.8,0,0.9,1.2,2.5C525.2,160,525.9,161,527.1,163.3z"/>
					<path class="st1" d="M528.4,166.5c0.6,1.4,1.2,3.1,1.4,3.7c0.2,0.7,0,0.3-1.2-2.1c2.1,4.8,3,6.9,3,6.5c0-0.2-0.3-1-0.8-2.4
						C530.2,170.8,529.5,168.8,528.4,166.5z"/>
					<path class="st1" d="M536.2,192.4c0,0,0.3,1,0.6,2c0.1,0.5,0.2,1,0.3,1.4c0.1,0.4,0.1,0.6,0.1,0.6l1.2,3.3
						c-0.3-0.8-0.8-2.7-1.2-4.4C536.8,193.7,536.3,192.3,536.2,192.4z"/>
					<path class="st1" d="M509.7,129.6c-0.3-0.2,0.7,1.8,0.7,2.2c0,0,0.1,0.2,0.4,0.5c0.2,0.3,0.5,0.7,0.8,1.2
						c0.5,0.9,1.1,1.7,1.1,1.7C511.8,133.3,509.7,130,509.7,129.6z"/>
					<path class="st1" d="M510.4,131.8l-3.5-5C509.8,131.5,510.5,132.2,510.4,131.8z"/>
					<path class="st1" d="M521.9,154.9c0,0,0.3,0.5,0.8,1.3c0.5,0.8,1,1.9,1.6,3c1.1,2.2,2.3,4.4,2.3,4.4s-1.3-2.6-2.7-5.3
						C523.2,157,522.5,155.7,521.9,154.9c-0.5-1.1-0.9-1.7-0.9-1.7L521.9,154.9z"/>
					<path class="st1" d="M496.6,110.5c0,0,0.2,0.2,0.4,0.4c0.2,0.2,0.5,0.6,0.8,0.9c0.6,0.7,1.1,1.3,1.1,1.3s-1-1.2-2-2.3
						c-1.1-1.1-2.1-2.3-2.1-2.3L496.6,110.5z"/>
					<path class="st1" d="M487,98.5c1.9,1.7-1.9-3,0-1c-2.8-3.1-5.3-5.7-7.6-7.9C481.8,91.9,484.1,94.8,487,98.5z"/>
					<path class="st1" d="M475.4,85.8c1.2,1.2,2.5,2.4,4,3.7C478.1,88.2,476.7,87,475.4,85.8z"/>
					<path class="st1" d="M501.2,118.3c-0.2-0.4-0.5-1.3-2.4-4.1l1,2.2C500.3,116.9,500.8,117.6,501.2,118.3z"/>
					<path class="st1" d="M499.9,116.4L499.9,116.4c-1.5-2.2-2.6-3.7-3-4.3C497.3,112.7,498.2,113.9,499.9,116.4z"/>
					<path class="st1" d="M501.6,118.8c-0.1-0.2-0.2-0.3-0.3-0.5C501.3,118.5,501.4,118.6,501.6,118.8z"/>
					<path class="st1" d="M514.8,140.7c-2-3-5.9-9.2-2.6-2.9C513.7,139.9,511.8,136.2,514.8,140.7z"/>
					<path class="st1" d="M502.9,121.5c0,0,0.2,0.3,0.6,0.8c0.3,0.5,0.7,1.2,1.2,1.9c0.8,1.4,1.7,2.7,1.7,2.7c0-0.2-0.5-1.2,0.6,0.2
						c0,0-1-1.4-2-2.8c-0.5-0.7-1-1.4-1.4-1.9C503.1,121.8,502.9,121.5,502.9,121.5z"/>
					<polygon class="st1" points="500.9,119 502.9,121.5 501.5,119.5 					"/>
					<path class="st1" d="M482.5,94.2c-1-1-2-2.1-3-3.2c-1.1-1.1-2.2-2.3-3.4-3.5c1.2,1.4,2.5,2.7,3.7,4.1c1.2,1.4,2.4,2.8,3.6,4.2
						C483.9,96.2,485.1,97.2,482.5,94.2z"/>
					<path class="st1" d="M491.2,104.8c-0.1-0.1-0.3-0.3-0.4-0.5C491,104.7,491.2,104.9,491.2,104.8z"/>
					<path class="st1" d="M451.6,64.3c0.1,0.1,0.2,0.3,0.4,0.4c0,0,0.1,0,0.1,0L451.6,64.3z"/>
					<path class="st1" d="M483.8,96.4c1.7,2.1,2.9,3.3,4,4.4c-1.4-1.5-2.8-3.2-4.4-5C483.3,95.7,483.2,95.7,483.8,96.4z"/>
					<path class="st1" d="M468.6,79.2c0.5,0.5,1,1.1,1.6,1.7c0.5,0.6,1.1,1.2,1.7,1.9c-0.4-0.6-1.1-1.4-1.8-2.1
						C469.5,79.9,468.9,79.3,468.6,79.2z"/>
					<path class="st1" d="M490.3,103.5c0.1,0.1,0.2,0.2,0.3,0.3C490.1,103.1,490.2,103.2,490.3,103.5z"/>
					<path class="st1" d="M490.3,103.5c-0.9-1.1-1.7-1.9-2.5-2.7c1.1,1.3,2.1,2.5,3,3.5C490.6,104,490.5,103.7,490.3,103.5z"/>
					<path class="st1" d="M441.9,60.1c0.3,0,1.9,1,4.1,2.6c1.1,0.8,2.3,1.7,3.5,2.7c1.2,1,2.4,2.1,3.5,3.2c4.8,3.8,2.7,0.2-0.9-3.9
						c-0.3,0-0.3,0-5.4-3.7c0.8,0.8,3.5,3,5.3,4.8c1.9,1.8,3,3,0.8,1.4c-1.6-1.3-2.7-2.3-3.6-3c-0.9-0.7-1.4-1.2-1.8-1.6
						c-0.9-0.8-1.3-1.3-2.8-2.6c1.2,1.3-1-0.2-3.4-1.8c-2.3-1.7-5-3.2-4.5-2.4c0,0,0.4,0.3,1,0.6c0.6,0.4,1.3,0.9,2.1,1.4
						c1.5,1.1,3,2.2,3,2.2C442.6,60.3,440.4,58.8,441.9,60.1z"/>
					<path class="st1" d="M461.1,72.7l1.9,1.8c-1.1-1-1.9-2-2.9-3c-1-1-2.1-2.1-3.5-3.5c-3.4-2.7-4.2-3.2-4.5-3.3
						c0,0,2.4,2.1,4.9,4.2c1.2,1.1,2.4,2.1,3.3,2.9c0.9,0.8,1.5,1.4,1.5,1.4L461.1,72.7z"/>
					<path class="st1" d="M471.4,82.7c-0.4-0.3-1-0.8-1.7-1.3c-0.6-0.5-1.3-1-1.9-1.4c-1.1-0.8-1.6-1.1-0.4,0.4
						c0.7,0.7,1.3,1.2,1.8,1.7c0.5,0.5,0.9,0.9,1.2,1.2c0.7,0.6,1.1,1,1.5,1.3c0.7,0.6,1.2,0.9,2.9,2.5c-8.6-8.9,2.6,2.4-3.4-4.2
						c1.7,1.7,3.3,3.3,4.7,4.8c-1.5-1.7-2.9-3.3-4.3-4.8c0.1,0.1,0.1,0.2,0.2,0.2l0,0l0,0c0.3,0.4,0.4,0.6,0,0.1
						c0,0-0.1-0.1-0.2-0.2C471.8,82.9,471.6,82.8,471.4,82.7c-2.4-2.7-0.3-0.5,0.5,0.3c0,0,0.1,0.1,0.1,0.1c0,0,0,0,0,0
						c0,0-0.5-0.6-1.4-1.4c-0.8-0.8-2-1.9-3.1-2.9c-2.3-2.1-4.6-4.2-4.6-4.2c0.9,0.9,2,2,3.4,3.3c0.7,0.6,1.4,1.4,2.3,2.2
						c0.4,0.4,0.9,0.8,1.4,1.3C470.4,81.6,470.9,82.1,471.4,82.7z"/>
					<path class="st1" d="M508,132.7c-0.2-0.3-0.1-0.3-0.1-0.4C507.4,131.6,507.2,131.4,508,132.7z"/>
					<path class="st1" d="M505.5,128.3c0.5,0.7,1.1,1.3,2.6,3.7c1.3,2.2-0.2,0.1-0.2,0.3c1.1,1.4,3.5,5.1,0.8,0.3l-0.5-0.7
						c-2.6-4.3-5.6-9.9-5-9.2C503.6,124,504,125.3,505.5,128.3z"/>
					<path class="st1" d="M489.3,104.4c0,0-0.4-0.5-1-1.2c-0.6-0.7-1.4-1.8-2.3-2.7c-1.7-1.9-3.4-3.8-3.4-3.8l3.1,4.2l0-0.3
						c1,1.1,1.6,1.9,2,2.5c0.5,0.6,0.7,0.9,0.9,1C489.1,104.4,489.1,104.2,489.3,104.4z"/>
					<path class="st1" d="M450.8,63.4l1.3,0.5c0,0-1.2-0.9-2.5-1.7c-1.3-0.8-2.6-1.6-2.6-1.6L450.8,63.4z"/>
					<path class="st1" d="M440.2,55.1l0.6,0c0,0-0.2-0.1-0.5-0.3c-0.3-0.2-0.7-0.4-1-0.6c-0.8-0.5-1.5-0.9-1.5-0.9L440.2,55.1z"/>
					<path class="st1" d="M41.5,414.6l1.6,2.5C42.4,416,41.9,415.2,41.5,414.6z"/>
					<path class="st1" d="M31.3,395.6l-0.4-0.4C31.4,396.1,31.7,396.4,31.3,395.6z"/>
					<path class="st1" d="M129.7,41.6c-3.9,2.1-8.4,4.3-7.7,4.4l1.4-0.4C125.9,43.8,127.9,42.6,129.7,41.6z"/>
					<path class="st1" d="M6.7,222.6c0.1-0.4,0.2-0.8,0.4-1.2c0.1-1.1,0.2-2.1,0.3-3C7.1,219.7,6.9,221.1,6.7,222.6z"/>
					<path class="st1" d="M7.9,226l-1.3,5.6C7,230.3,7.4,228.5,7.9,226z"/>
					<path class="st1" d="M121.8,499.8c0,0,0.8,0.4,1.5,0.8c0.8,0.4,1.6,0.8,1.6,0.8c-1.2-0.7-1.9-1.2-2.3-1.5
						c-0.5-0.3-0.7-0.4-0.7-0.4C121.7,499.4,122.1,499.8,121.8,499.8z"/>
					<path class="st1" d="M314.3,3.2c-3.8-0.6-6.8-1.1-9.4-1.5C309.4,2.6,313,3.4,314.3,3.2z"/>
					<path class="st1" d="M33.3,409.5c1,1.6,1.5,2.2,1.5,2.1C33.8,410,33.2,409.1,33.3,409.5z"/>
					<path class="st1" d="M293.8,0.8c0.7,0.1,1.3,0.2,2,0.3c1.4,0.1,2.8,0.2,4.3,0.2c1.5,0.1,3,0.2,4.7,0.4
						c-1.7-0.3-3.5-0.5-5.4-0.7C297.6,0.9,295.7,0.8,293.8,0.8z"/>
					<path class="st1" d="M499.8,428.1c0.2-0.3,0.4-0.6,0.6-0.8C500.4,427.2,500.1,427.6,499.8,428.1z"/>
					<path class="st1" d="M548,313.1c-0.1,1.2-0.4,3.3-0.6,5.2C547.5,317.4,547.7,315.8,548,313.1z"/>
					<path class="st1" d="M394.1,27C396.7,28.2,394.5,27.1,394.1,27L394.1,27z"/>
					<path class="st1" d="M405.6,34.8c-0.6-0.2-1-0.4-1.1-0.3C404.8,34.5,405.2,34.6,405.6,34.8z"/>
					<path class="st1" d="M265.5,3.1c-0.1,0-0.1,0-0.2,0C266.1,3.1,266,3.1,265.5,3.1z"/>
					<path class="st1" d="M397.8,29.1c-0.9-0.5-2-1.1-3.2-1.8C395.2,27.6,396.1,28.1,397.8,29.1z"/>
					<path class="st1" d="M397.4,28.6c0.9,0.5,1.6,0.8,2.2,1.2C400,29.9,399.7,29.7,397.4,28.6z"/>
					<path class="st1" d="M390.5,25.4c1.5,0.7,2.9,1.3,4.2,1.9c-0.5-0.3-0.7-0.4-0.6-0.3C393.3,26.6,392.3,26.2,390.5,25.4z"/>
					<path class="st1" d="M310.7,546.4c0.2,0,0.4,0,0.6,0C314.1,545.8,312.9,546,310.7,546.4z"/>
					<path class="st1" d="M75.9,91.7c0.1-0.1,0.1-0.2,0.2-0.2C76,91.5,75.9,91.6,75.9,91.7L75.9,91.7z"/>
					<path class="st1" d="M69.4,99.4c2.4-3.6,4-5.5,6.4-7.7c0,0-0.8,0.4-1.6,0.8c-0.4,0.2-0.8,0.4-1.1,0.5c-0.3,0.2-0.5,0.3-0.5,0.3
						L69.4,99.4z"/>
					<path class="st1" d="M72.1,456.3l-4.3-5.6c3,3,5.5,5.7,6.7,7c0.6,0.6,1,0.9,0.8,0.7c-0.1-0.2-0.6-0.9-1.6-2.2
						c-0.4,0-1.7-1.2-3.5-3.2c-1.8-1.9-4.1-4.5-6.2-7.2c-2.1-2.7-4.3-5.4-6-7.4c-1.6-2.1-2.8-3.5-3.2-3.5l-2.5-4
						c0.8,1.1,1,1.2,1.7,2.3c-4.7-7.7-4.7-4.9-10.9-14.9c-0.5-0.9-1-1.7-1.3-2.4c-0.4-0.7-0.7-1.3-0.8-1.7c-0.4-0.8-0.3-0.9,0.5,0.3
						l-4.8-7.7c-0.7-1.1-0.8-1.6-0.7-1.5c0.1,0.1,0.6,0.8,1.2,1.9c0,0-0.5-0.7-1.1-1.9c-0.6-1.1-1.4-2.7-2.2-4.2
						c-1.6-3.1-3.2-6.1-3.2-6.1l0.1,0.1c-0.6-0.8-1.3-2.2-2.1-3.7c-0.8-1.4-1.6-2.9-2.1-3.9c-1.3-3.3,0.9,1.6,0.6,0.7
						c0,0-0.9-1.7-1.7-3.4c-0.4-0.9-0.9-1.7-1.2-2.4c-0.3-0.6-0.5-1.1-0.5-1.1c-0.4-1.5,0-0.8,0.8,0.8c0.9,1.6,2.1,4.3,3.2,6.7
						c-0.9-3.5-1.6-4.9-2.8-7.3c-1.1-2.4-2.7-5.7-5.1-13c0,0,0.2,0.4,0.4,1.1c0.3,0.6,0.6,1.5,1,2.3c0.7,1.7,1.4,3.3,1.4,3.3
						c-0.2-1.2-0.6-2.3-1-3.6c-0.4-1.2-0.9-2.6-1.3-4c-0.9-2.9-1.9-6.1-3-10.1c0.4,1.9,4.1,15.8,1.1,8.1c-0.6-2.3-1.6-5.2-3.3-9.4
						c0.4-0.2-0.9-4.4-2.4-9.6l0.7,0.2c-0.5-1.4-0.8-2.4-1.1-3.2c-0.2-0.8-0.4-1.4-0.6-1.9c-0.4-1-0.7-1.7-1.2-3.4
						c-1.4-6.4-1.3-7.9-1.1-9.5c-1.8-10.4,0.5,7.3-1.8-5c-0.3-2.2-0.7-4.2-1-6.1c-0.3-2-0.5-3.9-0.8-5.8c-0.6-3.9-1.4-8-1.9-13.3
						c-0.2-6.2,0.5,1,0.5-1.2l-0.9-5.4c-0.1-1.3,0.1-0.9,0.2-0.7c-0.2-1.1-0.2-1.7-0.3-2.1c-0.1-0.4-0.2-0.5-0.2-0.7
						c-0.2-0.4-0.3-1.2-0.5-4.8c-0.2-0.5-0.2-1.7-0.2-3.3c0-0.8,0-1.7,0.1-2.8c0-0.5,0-1,0-1.6c0-0.5,0.1-1.1,0.1-1.7
						c0.2-2.3,0.4-4.8,0.5-7.3c0.1-2.5,0.1-5,0.1-7.2c0.3-2.2,0.3,1.1,0.6,0.4c0.2-6.1,0.3-8.8,0.4-11.1c0.1-2.4,0.3-4.4,0.5-9.5
						c0,0,0.4-2.1,0.8-4.2c0.2-1.1,0.5-2.1,0.6-2.9c0.2-0.8,0.3-1.3,0.3-1.3c-1.6,6.1-0.7-1.9,0.1-9c-0.6,2.2-1.2,4-1.5,5.3
						c0,0,0.4-2.8,0.8-5.6c0.2-1.4,0.5-2.8,0.7-3.8c0.2-1,0.3-1.7,0.3-1.7c0.4-1.3,0.4-0.1,0.2,1.7c0.1-0.8,0.2-1.5,0.3-2.1
						c1.1-3.9,1-1.8,0.7,1.1c-0.4,1.3-0.9,2.6-1.3,3.9c-0.1,2.8-0.1,5.5,0.3,5c0.1-0.7,0.2-2.1,0.5-3.7c0,0.7,0,1.2,0.1,0.9
						c0.2-0.4,0.1-1.6,0.4-3.4l1.3-2.4l-0.1-0.7c0,0,0.9-3.6,1.9-7.1c0.4-1.8,1.1-3.5,1.5-4.9c0.4-1.3,0.7-2.2,0.7-2.2
						c0.5-2.6,1.1-5.1,1.6-7.7c0.7-2.5,1.3-5.1,2-7.9c0.4-1.4,0.8-2.8,1.2-4.3c0.4-1.5,1-3,1.5-4.6c0.6-1.6,1.2-3.3,1.8-5.1
						c0.6-1.8,1.3-3.7,2.2-5.6c-1.2,4,0.4,1.2,0.9,1.6c-1.2,2-2.3,5-3.6,8.6c-0.6,1.8-1.3,3.7-2,5.6c-0.6,2-1.3,4-2,6.1
						c1.5-4.3,1.5-3.2,1.2-2.1c0,0,0.3-0.9,0.7-2.3c0.2-0.7,0.4-1.5,0.7-2.4c0.3-0.9,0.6-1.8,0.9-2.7c1.3-3.7,2.6-7.3,2.6-7.3
						c0.2,0.3,0.6-0.5,1.1-1.7c0.6-1.2,1.4-3,2.3-4.8c-1.1,1.2-0.1-1.5,1.5-5.2c0.4-0.9,0.8-1.9,1.3-2.9c0.5-1,1-2,1.5-3
						c1-2,1.9-3.9,2.6-5.3c0.5-0.2,0.1,1.3-3.5,8.1c2.3-3.6,3.3-6.2,4.2-8.7c0.9-2.6,2-5.1,4.4-8.5c-0.9,1.6-1.5,2.5-1.7,3.2
						c1-2,2.8-5.3,4.3-7.8c1.5-2.5,2.8-4.1,2.2-3l-1,1.6c1.7-2.6,3.8-5.9,6.1-9.4c0.5-0.9,1.2-1.8,1.8-2.6c0.6-0.9,1.2-1.7,1.8-2.6
						c1.2-1.8,2.4-3.5,3.6-5.2c1.1-1.7,2.4-3.2,3.4-4.7c1.1-1.4,2.1-2.8,2.9-3.9c1.7-2.3,2.7-4,2.9-4.4c0.2,0-0.3,1.9-0.6,2.6
						c0,0,0.2-0.3,0.5-0.8c0.3-0.5,0.8-1.2,1.4-2.1c1.2-1.8,2.7-4.1,4.3-6.4c1.5-2.4,3.2-4.6,4.5-6.3c1.3-1.7,2.1-2.8,2.1-2.8
						c-0.8,1.9,5.6-2.3-1.2,5.5c1.1-1,2.2-2.2,3.7-3.7c1.4-1.5,3.1-3.3,5.3-5.6c-1.5,1.3-4.4,2.8-2.4,0.8c3-2.3,4.1-3.2,5.3-4.2
						c0.6-0.5,1.2-1,2.1-1.8c0.9-0.8,2.1-1.8,4.1-3.2c-2.4,1.9-0.6-1.2,3.1-4.3c-0.5,0.6,1,0.6-0.2,1.8c0,0,2.1-2.2,4.1-4.3
						c1-1.1,2.2-2.1,3-2.9c0.8-0.8,1.4-1.3,1.4-1.3c-2.2,2,0.2,1.1,2.5-0.3c-0.6,0.3,1.5-1.3,3.9-3.2c2.5-1.9,5.6-3.9,6.8-4.9
						l-4.3,2.7c2.8-1.9,4.8-3.4,6.4-4.8c0.8-0.7,1.5-1.3,2.2-1.9c0.7-0.6,1.3-1.1,2-1.6c1.3-1.1,2.6-2.1,4.2-3.4
						c1.7-1.2,3.7-2.8,6.7-4.4c-1.3,1-2.7,3.2,3.2,0c0.6-0.5,1.6-1.3,2.8-2.4c1.3-1.1,2.8-2.4,4.7-3.7c1.9-1.3,4-2.8,6.3-4.3
						c1.2-0.7,2.3-1.5,3.6-2.2c1.3-0.7,2.6-1.4,3.9-2l2.2-0.6c0,0,2.1-1,4.1-2.1c1-0.5,2.1-1,2.9-1.3c0.8-0.3,1.3-0.6,1.3-0.6
						c-2.5,1.4-7.2,4.3-12.2,7.3c-2.5,1.4-5,3.2-7.4,4.7c-2.4,1.5-4.6,2.9-6.4,4.1c4.6-2.1,1.4-0.3,8.1-3.8c2.5-0.9-3.4,2.3-5.4,3.3
						c0,0,3.9-2,7.8-3.9c1.9-1,4-1.8,5.5-2.5c1.5-0.7,2.5-1.1,2.5-1.1c-0.5-0.1,2.5-1.7,5.5-3.2c3.1-1.4,6.2-2.8,5.8-2.9
						c0,0-1.1,0.5-2.7,1.2c-0.8,0.4-1.8,0.8-2.8,1.2c-1,0.5-2.1,1-3.1,1.6c-4.3,2.1-8.5,4.2-8.5,4.2c-0.5-0.1,1.8-1.7,5.7-3.9
						c1-0.5,2-1.1,3.2-1.7c1.1-0.6,2.4-1.3,3.7-1.8c2.6-1.1,5.5-2.3,8.4-3.5c3.1-0.9-1.8,2-1.5,2.1c0.4-0.2,1.2-0.6,2.3-1.1
						c1.1-0.5,2.4-1.1,3.8-1.5c2.7-1,5.4-1.9,6-2l-4.9,2c3.3-1,5.9-2.1,8.7-3.2c2.8-1.1,5.9-2,9.9-2.9c1.4-0.3,3.5-0.8,5.3-1
						c1.8-0.3,3.4-0.5,3.6-0.8c-4.7,0.3-6.3-1.8-3.3-3.1c0.5-0.1,4.3-0.8,8.3-1.5c1-0.2,2-0.4,3-0.5c1-0.1,2-0.2,2.9-0.3
						c1.8-0.2,3.3-0.4,4.1-0.4c4.8-0.2-6.8,2.7-2.7,2.5c0.1-0.2,2.7-0.9,3.7-1.2c3-0.4-1.1,0.8,5.3-0.5c1-0.8,13.3-1.6,3-1
						c3.2-0.5,4.9-0.7,6.7-0.9c1.8-0.2,3.8-0.4,7.6-0.7c-1.2-0.1,0.4-0.6,3.2-1.2c1.4-0.3,3.1-0.6,4.8-0.8c0.9-0.1,1.7-0.3,2.6-0.4
						c0.9-0.1,1.7-0.1,2.5-0.2c-0.4,0.2,1.1,0.4,1.8,0.5c3.3-0.1,6.2-0.1,9-0.1c2.7,0.1,5.2,0.2,7.7,0.3c2.5,0.1,4.9,0.2,7.5,0.3
						c2.6,0.2,5.3,0.4,8.4,0.7c0.6,0.1,2.3,0.4,3.6,0.6c1.3,0.2,2.1,0.5,0.9,0.4c1.8,0.1,3.4,0.1,7.2,0.5c7.2,1.5-8.4-1-2.9,0.4
						c0.3-0.2,2.7,0,5.8,0.3c1.5,0.2,3.2,0.2,4.8,0.5c1.6,0.2,3.2,0.4,4.6,0.6c-0.4-0.2-1.3-0.5-2.7-0.8c-1.3-0.3-3-0.6-4.8-0.7
						c-3.6-0.4-7.6-0.7-10.3-0.9c0-0.4,2.4-0.6,6.4-0.4c2,0.1,4.4,0.1,7.1,0.4c2.7,0.3,5.7,0.7,8.9,1.2c2.5,0.4,4.1,0.7,5,1
						c0.9,0.2,1.2,0.4,1.2,0.5c0,0.2-1,0.1-0.1,0.2c4.7,1.1,8.1,1.8,10.7,2.3c2.6,0.6,4.6,1,6.4,1.3c1.8,0.4,3.6,0.7,5.8,1.3
						c2.2,0.6,4.9,1.6,8.7,3c5.9,2.6-0.1,1.1,1.1,1.9c-4-1.2-7-2.4-9.7-3.3c-2.7-0.9-5.1-1.7-7.9-2.5l6.7,2.2c-2.6-0.6-8-2-10.9-2.9
						c1.3,0.5,3.8,1.3,7.2,2.3c1.7,0.5,3.6,1.1,5.6,1.7c2,0.7,4.1,1.4,6.3,2.2c2.2,0.8,4.5,1.5,6.8,2.3c2.2,0.9,4.5,1.8,6.7,2.7
						c1.1,0.4,2.2,0.9,3.2,1.3c1.1,0.4,2.1,0.8,3.1,1.3c2,0.9,3.8,1.8,5.5,2.6c2.5,0.9,6.7,2.6,4.8,1.5l-4.3-1.9
						c-3.8-2.2,8.3,3.1,3,0.5c0.7,0.3,1.5,0.6,2.3,0.9c0.8,0.3,1.5,0.7,2.3,1c1.5,0.7,3.1,1.4,4.8,2.2c1.7,0.8,3.4,1.6,5.2,2.5
						c1.8,1,3.6,2.1,5.5,3.2l1.1,1.4c-0.1-0.2-4.9-3.2-7.1-4.3c1.7,0.8,4.5,2.7,7.5,4.5c1.5,0.9,3,1.8,4.3,2.6
						c1.3,0.8,2.5,1.5,3.5,1.9c0,0-1.3-0.9-2.5-1.9c-0.6-0.5-1.3-0.9-1.8-1.2c-0.5-0.3-0.8-0.5-0.8-0.5c1.4,0.7,2.9,1.5,4.4,2.4
						c1.5,0.9,3.1,1.8,4.8,2.7c1.6,1,3.3,1.9,4.9,3c1.6,1.1,3.2,2.2,4.8,3.4c-2.6-2.6-1.5-1-5.7-4.8c1.8,1.7-2.5-1.1-6.4-3.6
						c-2-1.3-3.9-2.5-4.9-3.1c-1.1-0.5-1.2-0.5,0.4,0.7c-2.3-1.8-4.4-3.1-6.7-4.6c-2.3-1.4-4.8-3-8.1-5c0.1,0.3,2.2,1.6-3.7-1.6
						c-0.3-0.1-1-0.3-1.4-0.5c-0.2-0.1-0.2-0.1-0.4-0.2c0.1,0.1,0.2,0.1,0.3,0.2c-0.3-0.1-0.3-0.1,0.1,0.1c1.4,0.8,2.5,1.5,2.9,1.8
						c-1.6-0.5-4.7-2.1-7.9-3.5c-3.2-1.4-6.5-2.8-8.2-3.4c-3.6-1.7,1.6,0.5-0.3-0.6c0,0-1.3-0.5-2.5-0.9c-1.3-0.4-2.6-0.8-2.6-0.8
						c-0.3-0.6-9.5-4.5-0.7-1.4l-7.8-3.1c-1.1-0.5-2.4-1-3.7-1.5c-1.3-0.5-2.7-1-4-1.5c-2.7-0.9-5.3-1.9-7.3-2.3
						c-3.8-1.2-9.8-2.3-6.3-1.7c0,0-0.8-0.2-2-0.5c-1.2-0.3-2.8-0.8-4.4-1.1c-3.2-0.7-6.4-1.3-6.4-1.3l-0.1-0.1
						c-6.3-1.6-12.9-2.4-19.8-3.6c-6.9-0.8-13.9-1.9-21.3-2.7c-2.2-0.1-4.4-0.2-7-0.4c-2.6,0-5.5-0.1-9.2-0.3L278.2,0
						c-2.8-0.1-7,0-10.8,0c-3.8,0-7.2,0.1-8.4,0.4c-1.5-0.1-4-0.1-7,0.1c-1.5,0.1-3.1,0.2-4.8,0.3c-1.7,0.2-3.5,0.4-5.3,0.7
						c-1.8,0.2-3.7,0.5-5.5,0.7c-1.8,0.3-3.6,0.5-5.3,0.8c-3.4,0.6-6.6,1.2-9,1.6l-0.3,0.6c-0.8,0.1-1.7,0.3-2.5,0.4
						c-0.8,0.2-1.6,0.4-2.5,0.6c-1.7,0.4-3.3,0.8-5,1.2c-1.7,0.4-3.5,0.9-5.3,1.3c-1.8,0.5-3.7,1.1-5.7,1.8l0.6,0.3
						c-3.4,1.2-8,2.3-12.9,3.9c-2.5,0.8-5.1,1.6-7.8,2.4c-2.6,0.9-5.3,2-8,3c0.7-0.4,3.4-1.5,5.4-2.1c-3.3,1-6.6,2.2-9.9,3.6
						c-3.3,1.4-6.5,3-9.7,4.6c-3.2,1.5-6.2,3.3-9.2,4.9c-3,1.6-6,3-8.7,4.5c-2.6,1.7-4.6,2.8-6.5,3.7c0.3-0.1,0.5-0.3,0.7-0.4
						c-0.3,0.2-0.7,0.4-1.1,0.6c-0.6,0.3-1.2,0.6-1.9,1c-0.6,0.4-1.3,0.7-1.9,1.1c1.2-0.6,2.2-1.2,3.2-1.7c-2.1,1.2-5.1,3.3-8,5.3
						l-1.5,0.4c-0.2,0.2-0.4,0.3-0.7,0.5c-3,1.7-2.2,1.7-0.5,1c-1.5,1-2.7,2.1-3.7,2.9c-1.4,0.5-3.2,1.9-5.2,3.4c-1,0.7-2,1.5-3,2.2
						c-1,0.7-1.9,1.3-2.8,1.8c-0.8,0.9-4.3,3.7-7.7,6.5c-3.3,3-6.4,6-6.8,6.9c-0.2,0-1,0.6,0.5-0.6c-0.8,0.6-1.5,1.3-2.3,1.9
						L90,72.9c-0.4,0.3-0.7,0.7-1.1,1c-1.4,1.3-2.7,2.6-3.9,4l-1.6,0.7c0,0-1.4,1.6-2.8,3.3c-1.3,1.7-2.7,3.4-2.7,3.4
						c-3.9,3.5-5.6,5-2.3,0.9c-2.1,2.4-3.5,4.1-4.6,5.4c-1.1,1.3-1.8,2.3-2.6,3.2c-1.5,1.8-2.8,3.4-6,7.7l0-0.7
						c-2.4,3-5.7,8.1-7.4,9.8c-1.4,1.6-3.6,4.6-6.4,8.4c-0.7,1-1.4,1.9-2.2,3c-0.7,1.1-1.4,2.2-2.2,3.4c-1.5,2.3-3.1,4.8-4.8,7.4
						c-6.3,10.5-12.8,22.9-17.4,32.9c1.4-1.7,0.2,0.5-1.2,3.4c-1.3,2.9-2.9,6.4-2.7,7c-0.7,1.1-2,3.9-0.9,0.5
						c-0.5,1.3-1,2.5-1.4,3.7c-0.4,1.2-0.8,2.3-1.2,3.3c-0.7,2.1-1.4,4-2,5.8c-0.6,1.8-1.3,3.5-1.7,5.2c-0.4,1.7-0.8,3.5-1.2,5.4
						c-0.6,1.2,0.3-2.4-0.2-1.4c-0.2,0.9-0.7,3.5-1.2,4.6c-0.5,1.1,0.2-1.6,0.6-3.4c-0.8,2.8-1.3,4.9-1.7,6.6
						c-0.3,1.7-0.4,3-0.5,3.9c-0.1,1.9,0.2,2.4,0.5,2.9c-0.8,2.8-1.4,4.9-1.8,6.8c-0.3,1.9-0.5,3.7-0.6,5.8
						c-0.6,1.9-1.5,5.2-0.3-1.8c-0.2,1-0.6,3-1,5.4c-0.2,1.2-0.5,2.6-0.7,3.9c-0.2,1.4-0.4,2.8-0.6,4.2c-0.7,5.6-1.3,10.8-0.9,11
						c-0.3,1.2-0.5,5.6-0.5,6.6c-0.2,2.2-0.3,4-0.4,5.4c-0.1,1.5-0.1,2.7-0.1,3.9c-0.1,2.4-0.1,4.8-0.2,9.2l0.2-2.4
						c0.6,3.5,0.2,7.3,0.4,14.4l-0.1-0.2c-0.1,4.1,0.1,6.5,0.2,8.2c0.1,1.7,0.2,2.5,0.3,3.4c0.1,0.9,0.2,1.7,0.3,3.4
						c0,0.8,0.1,1.8,0.2,3.2c0.1,1.3,0.3,2.9,0.4,4.9l0.4-0.9c0.6,0.7,0.9,4.2,1.2,8.7c0.5,4.5,1.2,10,2.2,14.5c0,0,0-0.2-0.1-0.5
						c0-0.3-0.1-0.7-0.1-1.2c-0.1-0.8-0.2-1.7-0.2-1.7c0.6,2.5,1,6,1.4,9.6c0.4,3.6,0.7,7.2,1.4,9.7c0.2,1.1-0.7-1.7-1.1-3.2
						c3,13.1,1.1,1.5,3.9,11.1c0.1,0.9-0.3,0.4-0.4,0.5c-0.1,0-0.1,0.2,0,0.8c0.1,0.6,0.3,1.6,0.9,3.2c0.4,1.6,2.2,6.2,4.3,11.4
						c1.1,2.6,2.3,5.3,3.4,8c0.5,1.3,1.1,2.6,1.5,3.9c0.5,1.2,1,2.4,1.4,3.5c-0.6-2-1.2-3.9,0.9,0.3c2.9,6.5,7.4,17.9,11.3,23
						c0.4,0.8,0.5,1.1,0.5,1.2c0.7,1.2,1.7,2.7,2.7,4.4c1,1.7,2.1,3.5,3.3,5.2c2.3,3.4,4.6,6.6,5.6,7.9c0.3,1.3,1.8,3.6,3.7,6.4
						c2,2.8,4.3,6.1,6.9,9c1.2,1.5,2.5,3,3.6,4.3c1.1,1.4,2.1,2.6,3.1,3.7c1.8,2.1,2.9,3.5,2.6,3.7c0,0,0.7,0.8,1.7,2
						c1.1,1.2,2.4,2.8,3.8,4.3c2.9,3,5.8,6,5.8,6l-0.4-0.2c0.9,1,1.8,1.9,2.5,2.7c0.8,0.8,1.6,1.5,2.3,2.2c1.4,1.3,2.6,2.4,3.6,3.3
						c2.1,1.8,3.5,3,5.1,4.1c1.8,1.7,0.3,0.6,0.1,0.5c5.8,5.2,9,8.2,12.2,10.5c1.6,1.2,3.1,2.3,5,3.6c0.9,0.6,1.9,1.4,3,2.1
						c1.1,0.7,2.4,1.5,3.7,2.4l0.8,1.2c0.8,0.5,2.3,1.5,4.3,3c1,0.8,2.2,1.6,3.5,2.4c1.3,0.9,2.7,1.8,4.2,2.8c1.5,1,3,2,4.6,3.1
						c1.7,1,3.4,2,5.1,3c1.7,1,3.5,2,5.2,3c1.7,1,3.6,1.8,5.3,2.6c-0.2,0-0.5-0.1-1.6-0.6c7.8,3.8,17,8.5,25.2,12
						c2.1,0.9,4.1,1.7,5.9,2.5c0.9,0.4,1.9,0.7,2.7,1.1c0.9,0.3,1.8,0.6,2.6,0.8c3.3,1,5.9,1.7,7.5,1.8c0,0,0.7,0.2,1.7,0.5
						c1,0.3,2.4,0.6,3.8,1c2.8,0.7,5.5,1.3,5.5,1.3c-14.1-4.1,2.3-0.2-3.4-2.1c2.8,0.7,6.3,1.9,8.3,2.6c1,0.4,1.6,0.6,1.6,0.6
						c-0.1,0-0.8,0-2.5-0.5l-1-0.4c-0.7,0,0.1,0.4,1.6,0.9c1.5,0.5,3.8,1,6.2,1.6c2.4,0.6,4.8,1.1,6.6,1.6c1.8,0.5,3,0.7,2.9,0.9
						c3.6,0.6,7.1,1.3,10.7,1.9c3.6,0.6,7.1,1,10.7,1.5c1.8,0.2,3.5,0.5,5.3,0.7c1.8,0.1,3.5,0.3,5.3,0.4c1.8,0.1,3.5,0.3,5.3,0.4
						c0.9,0.1,1.8,0.2,2.6,0.2l2.6,0.1c3.5,0.1,7,0.2,10.5,0.4c3.5,0,7-0.1,10.4-0.1c1.7,0,3.5,0,5.2-0.1c1.7-0.1,3.4-0.2,5.1-0.4
						c1.7-0.1,3.4-0.2,5.1-0.4l2.6-0.2c0.8-0.1,1.7-0.2,2.5-0.3c0,0-0.8-0.1-1.6-0.2c-0.4,0-0.8-0.1-1.1-0.1c-0.3,0-0.5-0.1-0.5-0.1
						s0.1,0,0.4,0c0.3,0,0.6,0,1.1-0.1c0.9-0.1,2.1-0.3,3.2-0.4c2.3-0.3,4.7-0.6,4.7-0.6c2.5-0.1,3.4,0.1-3.3,1c1.8,0,4.6-0.5,7-0.9
						c1.2-0.2,2.3-0.5,3-0.7c0.8-0.2,1.3-0.4,1.3-0.4c13.1-2-4.9,1.7-1,1.1l5.4-1l-1.2,0.1c2.2-0.6,3.3-0.9,5-1.3
						c0.8-0.2,1.7-0.4,3-0.7c1.2-0.3,2.7-0.7,4.7-1.1c5-1,2.7-0.2,4.6-0.6c0,0,0.2,0,0.6-0.1c0.5-0.1,1.2-0.3,2.4-0.6
						c0,0,0.7-0.1,1.8-0.5c1.1-0.3,2.5-0.7,4-1.1c2.9-0.8,5.8-1.6,5.8-1.6l-4.8,0.7c2.5-0.9,5.2-1.6,6.6-2.1c0.7-0.2,1-0.4,0.9-0.4
						c-0.1,0-0.8,0.1-2.2,0.3c0.5-0.1,1.1-0.2,1.8-0.3c0.7-0.2,1.5-0.4,2.3-0.6c1.7-0.5,3.7-1.1,5.9-1.8c4.4-1.3,9.5-3.4,14.5-5.3
						c2.5-0.9,4.9-2.1,7.2-3.1c2.3-1,4.5-2,6.4-2.9c3.8-1.8,6.6-3.3,7.8-3.8c1.6-0.9,3.2-1.8,4.8-2.7c1.6-1,3.2-1.9,4.9-2.9
						c3.3-2,6.9-3.9,10.7-6.4c-2,1.1-3.4,1.3,3.2-2.8c-0.4,0.7,0.1,0.5,1.3,0c1.2-0.6,3-1.6,4.9-3c2-1.3,4.1-2.8,6.2-4.2
						c1-0.7,2-1.3,2.9-1.9c0.9-0.6,1.7-1.1,2.4-1.5c-2.4,1.5,1.9-2,5.9-5.2c2-1.6,3.8-3.3,4.7-4.2c0.9-0.9,0.9-1.1-0.9,0.2
						c5-4.2,0.6,0.1,4.6-2.9c1.4-1.3,2.9-2.6,4.4-4c1.5-1.4,3-2.9,4.5-4.3c1.5-1.5,3.1-2.9,4.7-4.5c1.5-1.6,3.1-3.2,4.7-4.8
						c1.6-1.6,3.2-3.2,4.8-4.9c1.5-1.7,3.1-3.5,4.6-5.2c0.8-0.9,1.6-1.8,2.3-2.7l1.2-1.3l1.1-1.4c1.5-1.9,2.9-3.8,4.4-5.7
						c0-0.3-2.1,2,0.2-1.4c0,0,0.4-0.5,1.1-1.2c0.3-0.3,0.7-0.8,1.1-1.2c0.4-0.5,0.8-0.9,1.2-1.4c1.6-1.9,3.3-3.9,3.3-3.9
						c1.1-1.6,1.4-2.4,2-3.6c0.3-0.6,0.7-1.2,1.2-2c0.5-0.8,1.3-1.9,2.3-3.3c-0.7,0.7-1.6,1.8-0.3-0.3
						c10.6-15.5,19.3-32.7,26.2-50.7c6.9-18,12-36.7,15.8-55.4c-1.2,5-0.7,1.6,0-2.3c-0.5,2.5-0.4-0.1-0.7,0.3c0,0,0.1-0.2,0.1-0.7
						c0.1-0.4,0.2-1,0.3-1.8c0.3-1.5,0.6-3.4,0.9-5.4c0.3-2,0.7-3.9,0.9-5.4c0.1-0.7,0.2-1.4,0.3-1.8c0.1-0.4,0.1-0.7,0.1-0.7
						c-0.2-1.5,0.1-5.7,0.4-9.9c0.1-1,0.2-2,0.2-3c0-1,0-1.9,0-2.7c0-1.6-0.1-2.8-0.2-3.2l0,5.1c-0.3-3.4-0.7-1-1.3,2
						c-0.7,3-1.4,6.7-1.9,6.2c0.1,1.9-0.1,4-0.3,6.4c-0.3,2.4-0.8,4.9-1.3,7.6c-0.2,1.4-0.5,2.8-0.7,4.2c-0.1,0.7-0.2,1.4-0.3,2.2
						c-0.1,0.7-0.3,1.4-0.4,2.2c-0.5,2.9-1,5.9-1.2,9c-0.7,2.6,0.1-2.3-0.4-0.9c-0.1,3.1-0.9,6.8-2.6,13.5l0.1-0.8
						c-0.3,1.2-0.5,2.3-0.8,3.4c-0.3,1.1-0.6,2.2-0.9,3.2c-0.6,2-1.1,4-1.7,5.8c-0.3,0.9-0.5,1.8-0.8,2.7c-0.3,0.9-0.5,1.8-0.8,2.6
						c-0.6,1.7-1.2,3.4-1.8,5.1c-0.6,1.7-1.2,3.4-1.9,5.2c-0.6,1.8-1.5,3.6-2.2,5.5c-0.8,1.9-1.6,3.9-2.5,6.1
						c-0.2,0.5-0.5,1.1-0.7,1.7c-0.3,0.6-0.5,1.1-0.8,1.7c-0.5,1.1-1.1,2.3-1.7,3.6l1.1-1.3c-2,4.3-2.5,5.1-3.5,7
						c-1.6,5.2,5.5-12,4.2-7.2c-0.9,1.3-2.1,3.9-3.6,7c-0.7,1.6-1.6,3.2-2.5,5c-0.9,1.7-1.8,3.5-2.7,5.3c-0.5,0.9-0.9,1.8-1.4,2.7
						c-0.5,0.9-1,1.7-1.4,2.5c-1,1.6-1.9,3.2-2.7,4.5c-1.7,2.7-3,4.8-3.8,5.5c-3.9,6.1,1.6-1.5-2.3,4.6l-1.3,1.4l-0.7,1.7
						c-0.7,1-1.2,1.9-1.8,2.6c-0.6,0.7-1,1.3-1.4,1.7c-0.8,0.9-1.3,1.3-1.5,1.3c0.7-0.9,1.8-2.7,2.5-3.7c-1.9,2.4-4.4,5.9-6.6,9.1
						c-1,1.6-2.2,3-3,4.1c-0.9,1.1-1.5,2-1.9,2.4c0,0,1.1-1.3,2.2-2.7c0.6-0.7,1.1-1.3,1.5-1.8c0.4-0.5,0.7-0.8,0.7-0.8
						c-1.4,2-3,4-4.6,6c-0.8,1-1.6,2-2.4,3.1c-0.4,0.5-0.8,1-1.2,1.6l-1.3,1.5c-1.7,2-3.5,4-5.3,6.1c-0.9,1-1.7,2.1-2.7,3l-2.8,2.9
						c-1.9,2-3.7,3.9-5.6,5.9c-1.9,1.9-3.8,3.7-5.7,5.5c-3.7,3.7-7.6,7-11,10.3l1.2-0.8c-1.3,1.2-2.5,2.3-3.5,3.2
						c-1.1,0.8-1.9,1.6-2.7,2.2c-1.6,1.3-2.8,2.1-4,3.1c-1.3,0.9-2.5,1.9-4.3,3.2c-1.8,1.3-4.1,2.9-7.3,5.2l0.4-0.4
						c-2.4,2.1-6,4.4-9.7,6.8c3.3-2.4-6.7,3.7-2.4,0.6c-0.8,0.6-1.6,1.1-2.2,1.5c-0.7,0.4-1.3,0.8-1.9,1.1c-1.1,0.7-2,1.2-2.7,1.7
						c-1.4,0.9-2.1,1.3-2.6,1.7c-0.5,0.4-0.9,0.7-1.7,1.3c-0.8,0.6-2,1.5-4.2,2.8l-2.3,0.8c-1.5,1-2.3,1.5-3.6,2.3
						c-1.3,0.8-3.1,1.9-6.7,3.5c5.8-3-4.9,1.6,1.6-1.8c-3.9,1.5-7.2,3-10.2,4.3c-3,1.3-5.6,2.4-7.9,3.4c-1.2,0.5-2.3,1-3.3,1.4
						c-1.1,0.4-2.1,0.9-3.1,1.2c-2,0.6-3.9,1.2-5.8,1.5c-3.5,1.7,0,0.7,3.8-0.6c1-0.3,1.9-0.6,2.9-0.9c0.9-0.3,1.7-0.7,2.3-0.9
						c1.3-0.5,1.8-0.7,0.8-0.2c1.7-0.5,0.3,0.3-2.1,1.4c-2.5,1-6.1,2.3-8.6,3.1c-1.3,0.4-2.5,0.7-3.8,1c-1.3,0.3-2.7,0.5-4.3,0.8
						c-1.6,0.3-3.5,0.7-5.8,1.2c-1.1,0.3-2.4,0.6-3.7,0.9c-1.4,0.3-2.9,0.6-4.5,1c1.3-0.3,1.4-0.4,2.7-0.7c-2.5,0.4-4.9,1.1-7.4,1.7
						c-1.3,0.3-2.6,0.7-3.9,1c-1.4,0.2-2.8,0.5-4.4,0.6c-3.3,1.2-7.9,1.4-8.7,2.3l12.1-2.4c-3.4,0.7-6.7,1.6-10.6,2.5
						c-1.9,0.5-4,0.8-6.4,1.1c-2.3,0.3-4.9,0.6-7.8,0.9c0.9-0.3,4.3-0.9,6.6-1.3c-1.7,0.1-3.3,0.3-4.9,0.6c-1.6,0.2-3.3,0.5-5,0.5
						c0.2-0.2,1.3-0.4,2.8-0.6c1.5-0.3,3.6-0.5,5.9-0.8c2.3-0.3,4.7-0.6,7.1-1c2.3-0.5,4.6-0.9,6.4-1.4c-0.9,0.1-2.2,0.3-3.6,0.6
						c-1.4,0.3-2.9,0.6-4.2,0.8c-2.6,0.4-4.3,0.6-2.5,0c-2.6,0.9-5.9,1.3-9.6,1.7c-3.8,0.2-8,0.4-12.5,1.2l0.6-0.5
						c-1.4,0.2-4.4,0.5-7,0.6l4.8-0.7c-3.7,0.4-7.2,0.3-10.7,0.3c-3.5,0-7-0.4-10.5-0.3c3.7,0.1,5.7,0.2,6.8,0.3
						c1.1,0.1,1.2,0.1,1.1,0.2c-0.2,0.2-1.5,0.5,1.6,0.6c-2.3,0.2-4.2,0.1-5.7,0.1c-1.6,0-2.8-0.1-3.9-0.2c-2.2-0.1-3.5-0.3-5-0.6
						c-1.4-0.2-2.9-0.5-5.3-0.8c-2.4-0.3-5.7-0.6-10.8-1c2.7,0.2,10.3,1.1,6,1c-1.9-0.2-4.2-0.4-6.2-0.7c-2-0.3-3.9-0.7-5-1
						c-13.4-1.6,2,0.7-3.7,0.3c-4.5-1.1-6.6-0.8-12.5-1.6l0-0.5c-1.9-0.4-3.4-0.7-4.5-0.9c-1.2-0.3-2-0.4-2.7-0.5
						c-1.3-0.2-1.8-0.2-2.2-0.2c-0.9,0.1-1.5,0.1-8.3-1.6l5.9,0.7c0,0-1.8-0.4-3.5-0.7c-0.9-0.2-1.8-0.4-2.4-0.5
						c-0.7-0.2-1.1-0.3-1.1-0.3s0.4,0,0.8-0.1c0.4,0,0.8-0.1,0.8-0.1c-3.8-0.8-6.3-1.5-8.8-2.2c-1.2-0.4-2.4-0.7-3.8-1.1
						c-1.4-0.4-2.9-1-4.7-1.7c1.6,0.9-1.2,0.5-7.7-1.7c-1.1-0.4-1.5-0.6-1.5-0.8c-0.1-0.1,0.1-0.1,0.1-0.1c0,0-0.1-0.1-0.8-0.4
						c-0.7-0.3-2-0.8-4.2-1.7c1.1,0.3,2.2,0.5,3.5,1c0.7,0.2,1.4,0.5,2.2,0.8c0.8,0.3,1.7,0.6,2.6,1.1c0.5,0,2.1,0.4,2.6,0.4
						c-4.7-1.8-11.8-4.5-15-5.7c1.2,0.5,2.7,1.1,3.5,1.5c0,0-0.8-0.3-2.1-0.7c-1.2-0.4-2.9-1-4.6-1.6c-3.3-1.3-6.5-2.6-6.5-2.6
						c-1.9-1.1-0.3-0.5,1.4,0.1c-1.3-0.6-2.4-1-3.7-1.5c-1.3-0.5-2.7-1-4.6-2c1.1,0.1,1-0.3,6.5,2c0,0-0.8-0.3-1.9-0.8
						c-1.2-0.5-2.7-1.1-4.2-1.8c-3-1.4-6-2.8-6-2.8c-0.4-0.3-1.8-1.2-3-1.9c-1.2-0.7-2-1.4-1.2-1c-3.1-2-7.2-4-11.4-6.3
						c-2.1-1.2-4.2-2.5-6.4-3.8c-2.1-1.3-4.3-2.6-6.2-4.1c-0.5-0.2-1.3-0.8-3.1-1.9c-1.9-1.4-3.7-2.7-5.5-4
						c-1.7-1.4-3.5-2.8-5.2-4.3c-1.8-1.4-3.6-2.9-5.5-4.4c-1.9-1.6-3.8-3.2-6-4.9c0,0-1.1-1.1-2.1-2.3c-1.1-1.1-2.1-2.3-2.1-2.3
						c-6.3-5.8,5.5,6.4-5-3.2c-3.7-3.4-4.3-4.2-4.2-4.4c0.1-0.2,0.7,0.1-0.4-1.3c-1.9-1.7-4.4-4-7.3-6.8c-0.4-0.3-0.7-0.7-1.1-1.1
						c-0.3-0.4-0.7-0.8-1-1.2c-0.7-0.8-1.4-1.6-2.1-2.4c-1.4-1.7-2.9-3.4-4.3-5.3C68.7,452.3,70.2,454.2,72.1,456.3z M18.7,366
						c0.4,1,0.9,2.4,1.5,3.7c0.6,1.3,1.1,2.6,1.2,3.4c-0.7-1-1.1-1.9-1.6-3C19.5,369,19.2,367.7,18.7,366z M11.1,207.6
						c-0.3,1.5-0.8,3.8-1.6,6.4C9.9,212,10.4,209.9,11.1,207.6z M365,15.5c-0.1,0-0.1,0-0.2,0C360.5,13.8,362,14.4,365,15.5z
						 M374,19c0.9,0.3,0.9,0.2,0.5,0c-0.7-0.1-2.7-0.9-5-1.8C370.2,17.5,371.3,18.1,374,19z M341,544l-1.9,0.3
						C343.2,543.2,342.1,543.6,341,544z"/>
					<path class="st1" d="M7.8,225.5c-0.2,0.6-0.3,0.7-0.4,0.8C7.3,227.2,7.4,227.2,7.8,225.5z"/>
					<path class="st1" d="M121.3,499.5l0.3,0.2c0.2,0.1,0.3,0.1,0.3,0.1L121.3,499.5z"/>
					<path class="st1" d="M228,8.9c-1.9,0.3-3,0.4-3.8,0.4C224.2,9.4,225.1,9.3,228,8.9z"/>
					<path class="st1" d="M420.1,41c0,0-0.3-0.2-0.8-0.5c-0.5-0.3-1.2-0.7-1.8-1.1c-1.4-0.7-2.7-1.5-2.7-1.5c2.6,1.5,3.5,2.1,4.7,3
						C419.4,40.7,418.5,39.9,420.1,41z"/>
					<path class="st1" d="M460.8,75.6c0.7,0.6,1.4,1.3,2.1,1.9l0-0.3C460,74.5,458,72.8,460.8,75.6z"/>
					<path class="st1" d="M424.1,45.4c0.1,0.3,1,0.9,2.3,1.8c0.7,0.4,1.4,0.9,2.3,1.4c0.8,0.5,1.7,1.1,2.6,1.7
						c-0.2-0.2-0.4-0.3-0.6-0.4c0.7,0.1,0.1-0.4-1.2-1.3C428,47.7,426,46.6,424.1,45.4z"/>
					<path class="st1" d="M432,50.9c1.1,0.8,2.2,1.5,3.3,2.3C435.8,53.3,433.9,52.2,432,50.9z"/>
					<path class="st1" d="M385.4,23.4c1.8,0.9,1.4,0.1,2.4,0.7c1.2,0.2-2-1-4.2-1.8c-1.1-0.4-1.9-0.6-1.9-0.5
						C381.8,21.9,382.8,22.3,385.4,23.4z"/>
					<polygon class="st1" points="426.3,48.4 425.2,47.1 423,46.2 					"/>
					<path class="st1" d="M397.1,31.1l6,3.3c-0.1-0.1,0.7,0.2,1.7,0.7C401.1,33.1,397,30.9,397.1,31.1z"/>
					<path class="st1" d="M404.9,35.1c1.9,1,3.7,2.1,4.8,2.6C408.7,37.1,406.5,35.8,404.9,35.1z"/>
					<path class="st1" d="M418.3,43.5c0,0-0.4-0.3-0.8-0.6c-0.4-0.3-0.8-0.6-0.8-0.6l-4.2-2.4c0,0,1.5,0.9,2.9,1.8
						C416.9,42.5,418.3,43.5,418.3,43.5z"/>
					<path class="st1" d="M327.5,7.4l-7.4-1.2c-0.8,0,1.2,0.5,4,0.9C325.9,7.3,328.6,7.7,327.5,7.4z"/>
					<path class="st1" d="M349.2,14c-1.9-0.7-2-0.8-3.1-1.3l-0.4,0.5L349.2,14z"/>
					<path class="st1" d="M328,9c-0.8,0-10.7-1.4-1.4,0.2c0.4,0,2.4,0.3,3.5,0.4c0.5,0.1,0.9,0.1,0.6,0c-0.1,0-0.4-0.1-0.8-0.2
						C329.5,9.3,328.9,9.2,328,9z"/>
					<polygon class="st1" points="216.4,9.4 218.2,8.9 217.7,8 					"/>
					<path class="st1" d="M126.7,49.6c7.5-4.5,1.4-1.7,8.3-5.6c0.8-0.6-0.6,0.1-2,1c-1.4,0.8-2.8,1.6-1.9,1
						C126.7,49,124.3,50.4,126.7,49.6z"/>
					<path class="st1" d="M131.1,45.9c0.7-0.5,1.4-1,2.2-1.6C132,45.2,131.4,45.6,131.1,45.9z"/>
					<path class="st1" d="M550.6,292.3c0,0,0-0.4,0.1-0.9c0.1-0.5,0.1-1.3,0.2-2c0.1-1.4,0.2-2.9,0.2-2.9l-0.4,3.7c0,0,0,0.5,0,1
						C550.6,291.7,550.6,292.3,550.6,292.3z"/>
					<path class="st1" d="M550.2,281.2l0.7-1.3l-0.5-3.5C550.4,277.7,550.4,280.2,550.2,281.2z"/>
					<path class="st1" d="M15.2,350.7l-0.3-0.4c0.1,0.9,0.4,2.2,1.1,4.7L15.2,350.7z"/>
					<polygon class="st1" points="45.8,420.4 45.1,419.2 45.9,421.6 					"/>
					<path class="st1" d="M86.6,469.6c-0.9-0.9-2-1.8-3-2.9c-1-1-2-2-2.9-3C84.6,467.9,86.6,470.6,86.6,469.6z"/>
				</g>
			</g>
		</g>
	</g>
</g>
</svg>
